<svg version="1.0" xmlns="http://www.w3.org/2000/svg"
  viewBox="0 0 1800 1800" preserveAspectRatio="xMidYMid meet">
  <style>
    .bg { fill: #ffffff; }
    .fg { fill: #000000; }
    @media (prefers-color-scheme: dark) {
      .bg { fill: #000000; }
      .fg { fill: #ffffff; }
    }
  </style>

  <!-- Background -->
  <rect class="bg" width="1800" height="1800" rx="200"/>

  <!-- Logo paths -->
  <g class="fg" transform="translate(0,1800) scale(0.1,-0.1)" stroke="none">
    <path d="M6755 13245 c-11 -2 -87 -9 -170 -15 -227 -17 -536 -69 -685 -116
-25 -8 -74 -23 -110 -33 -117 -35 -247 -83 -340 -124 -60 -27 -281 -135 -300
-147 -8 -5 -61 -37 -118 -70 -113 -67 -253 -162 -321 -219 -24 -20 -68 -55
-99 -79 -70 -53 -295 -272 -383 -372 -230 -262 -450 -625 -566 -935 -8 -22
-21 -53 -29 -70 -13 -28 -57 -167 -89 -280 -32 -112 -55 -223 -85 -410 -7 -38
-16 -151 -20 -250 -13 -248 -13 -1542 0 -1550 5 -3 44 30 87 73 75 75 200 189
253 230 95 73 297 199 432 270 119 63 328 147 458 185 215 63 351 94 480 108
118 13 141 16 148 24 4 4 10 97 14 208 10 300 23 403 71 577 9 30 21 73 27 95
21 76 107 273 153 350 240 400 605 640 1078 710 132 20 448 17 554 -5 233 -47
368 -96 545 -197 209 -120 436 -366 555 -603 49 -98 53 -107 109 -257 70 -189
96 -447 96 -971 l0 -393 -22 -9 c-13 -5 -562 -9 -1253 -9 -748 -1 -1263 -5
-1315 -11 -47 -6 -112 -13 -145 -15 -140 -12 -442 -69 -590 -112 -288 -82
-401 -125 -600 -228 -168 -87 -210 -112 -330 -193 -366 -249 -667 -586 -841
-941 -31 -64 -61 -125 -66 -135 -6 -11 -14 -31 -18 -45 -5 -14 -18 -51 -30
-81 -52 -134 -106 -345 -134 -525 -9 -55 -21 -134 -28 -175 -8 -53 -13 -384
-17 -1140 -3 -586 -4 -1073 -2 -1082 3 -17 56 -18 946 -18 851 0 943 2 949 16
3 9 6 397 6 862 0 1015 13 1252 74 1432 46 135 75 195 148 301 124 183 345
326 598 388 215 54 182 52 1465 49 l1190 -3 6 -860 c8 -955 11 -1005 80 -1185
11 -30 24 -67 29 -82 5 -15 27 -64 49 -108 142 -283 389 -526 656 -644 33 -15
73 -33 88 -41 16 -8 37 -15 47 -15 10 0 21 -4 25 -9 3 -5 20 -12 38 -16 17 -4
52 -13 77 -20 158 -48 299 -65 537 -65 160 0 163 0 168 23 3 12 4 1385 2 3052
-4 3284 1 3006 -53 3330 -9 55 -28 143 -42 195 -13 52 -28 111 -33 130 -31
134 -147 433 -215 556 -13 24 -36 65 -50 92 -134 243 -291 448 -497 651 -218
213 -393 349 -612 474 -27 16 -76 44 -108 63 -32 19 -60 34 -62 34 -2 0 -48
21 -102 46 -119 55 -145 66 -203 89 -25 9 -61 23 -80 31 -38 15 -205 67 -285
89 -109 30 -210 51 -420 85 -163 27 -698 58 -770 45z"/>
    <path d="M10458 13139 c-17 -9 -18 -174 -18 -3234 0 -3236 2 -3453 36 -3685
24 -169 70 -378 106 -479 10 -31 21 -65 24 -76 22 -80 147 -347 217 -460 74
-120 131 -195 261 -338 93 -104 311 -284 386 -320 8 -4 29 -16 45 -27 84 -54
220 -119 345 -165 19 -7 53 -20 75 -28 87 -32 239 -71 365 -92 52 -9 122 -21
155 -27 33 -5 152 -14 265 -19 227 -10 3254 -12 3338 -2 28 3 52 9 52 14 0 4
-17 18 -37 30 -21 13 -98 68 -172 123 -259 194 -468 430 -611 691 -18 33 -36
65 -40 70 -4 6 -20 39 -35 75 -65 153 -102 264 -152 455 l-19 70 -829 6 c-845
5 -859 6 -1040 46 -338 74 -612 279 -749 561 -43 87 -60 137 -93 267 -17 66
-18 238 -21 3299 -2 2333 -5 3233 -13 3243 -9 11 -176 13 -918 13 -597 -1
-912 -4 -923 -11z"/>
  </g>
</svg>
