<svg version="1.0" xmlns="http://www.w3.org/2000/svg" preserveAspectRatio="xMidYMid meet" viewBox="77.7 438.15 870.4 151.15">  <!-- "Acad" letters in dark navy --> <g transform="translate(0.000000,1024.000000) scale(0.100000,-0.100000)" fill="#ffffff" stroke="none"> <path d="M1226 5845 c-94 -26 -178 -77 -256 -155 -137 -136 -175 -243 -184 -522 -4 -98 -4 -178 -2 -178 3 0 29 25 58 56 56 60 157 117 227 129 l38 6 6 78 c8 124 54 205 146 259 39 23 57 27 121 27 64 0 82 -4 122 -27 102 -61 142 -145 143 -303 l0 -100 -235 -6 c-206 -5 -242 -8 -292 -27 -147 -54 -260 -168 -307 -307 -15 -46 -21 -102 -27 -237 l-7 -178 157 0 156 0 0 144 c0 145 8 189 41 237 41 59 96 68 400 61 l116 -2 1 -111 c2 -121 19 -179 76 -246 36 -43 121 -83 190 -90 l56 -6 2 254 c4 423 -3 728 -17 800 -21 106 -76 203 -164 289 -85 84 -167 132 -262 155 -78 18 -236 18 -303 0z"></path> <path d="M2560 5514 c-218 -42 -400 -214 -455 -429 -29 -116 -15 -285 34 -395 50 -112 151 -215 265 -270 227 -109 468 -70 642 104 41 40 74 80 74 87 0 8 -54 49 -120 93 l-120 79 -46 -42 c-60 -56 -105 -74 -184 -75 -149 -1 -259 111 -260 265 -1 230 269 351 436 197 l45 -41 129 88 129 88 -46 53 c-71 84 -167 147 -272 180 -47 15 -207 26 -251 18z"></path> <path d="M3581 5494 c-178 -48 -340 -209 -398 -396 -26 -82 -23 -255 6 -338 69 -199 219 -339 412 -385 41 -9 114 -15 202 -15 l137 0 0 195 c0 107 -2 195 -4 195 -2 0 -20 -14 -41 -30 -52 -41 -134 -64 -199 -55 -215 28 -307 284 -158 438 71 74 169 102 271 77 64 -15 141 -81 179 -154 l27 -51 3 -307 4 -308 149 0 149 0 0 313 c0 235 -4 329 -15 382 -45 213 -210 387 -420 440 -74 19 -232 19 -304 -1z"></path> <path d="M5250 5649 c0 -187 -1 -201 -17 -196 -10 4 -49 18 -88 31 -55 20 -89 26 -162 26 -241 0 -449 -146 -535 -375 -19 -51 -22 -80 -22 -200 0 -124 2 -147 23 -200 86 -220 269 -357 497 -372 165 -11 311 39 424 144 76 70 123 141 157 239 l27 79 4 342 c4 371 -2 453 -43 532 -45 90 -138 151 -229 151 l-36 0 0 -201z m-163 -475 c84 -30 163 -149 163 -246 0 -236 -297 -352 -453 -178 -52 57 -70 102 -70 180 0 75 17 121 62 173 79 89 179 113 298 71z"></path> </g>  <!-- "Link" letters in blue/purple --> <g transform="translate(0.000000,1024.000000) scale(0.100000,-0.100000)" fill="#4353d4" stroke="none"> <path d="M5682 5328 l3 -523 32 -78 c79 -189 205 -303 389 -351 51 -13 121 -16 390 -15 316 0 327 1 286 17 -52 20 -126 75 -164 123 -17 20 -40 65 -53 100 l-23 64 -175 1 c-169 1 -178 2 -230 28 -62 30 -101 75 -128 147 -18 46 -19 86 -19 529 l0 480 -155 0 -156 0 3 -522z"></path> <path d="M6750 5069 c0 -500 2 -516 77 -599 57 -63 133 -99 223 -107 l69 -6 -26 74 c-25 72 -26 83 -34 428 -10 421 -15 452 -99 544 -51 56 -93 79 -167 92 l-43 7 0 -433z"></path> <path d="M7601 5504 c-143 -38 -291 -161 -354 -294 -19 -41 -40 -99 -46 -128 -7 -32 -11 -184 -11 -387 l0 -335 144 0 145 0 3 318 3 317 28 57 c33 66 98 120 169 139 123 33 259 -60 282 -191 4 -19 8 -119 10 -222 l3 -188 32 -65 c49 -99 127 -151 245 -162 l63 -6 -20 74 c-17 62 -21 121 -27 369 -6 266 -9 301 -28 353 -63 172 -198 303 -361 351 -68 20 -207 20 -280 0z"></path> <path d="M8390 5105 l0 -745 150 0 150 0 0 220 0 220 69 0 c81 0 66 14 216 -203 146 -211 189 -237 387 -237 l119 0 -63 89 c-71 100 -366 510 -380 528 -6 8 8 32 44 75 29 35 71 86 93 113 22 28 87 106 145 175 58 69 111 133 119 143 13 16 4 17 -160 16 l-174 0 -105 -131 c-247 -308 -238 -298 -275 -298 -33 0 -34 0 -41 57 -4 31 -4 138 0 238 7 198 -1 270 -39 345 -43 84 -126 140 -207 140 l-48 0 0 -745z"></path> </g>  <!-- Yellow dot above the "i" in Link --> <circle cx="679" cy="464" r="16" fill="#FFD700"></circle>  </svg>
